# xmcd
#
# Track frame offsets: 
#        225
#        22394
#        37847
#        62950
#        81820
#        94250
#        111136
#        135576
#        145337
#        161370
#        182481
#
# Disc length: 2585 seconds
#
# Revision: 0
# Processed by: cddbd v1.5.2PL0 Copyright (c) Steve Scherf et al.
# Submitted via: ExactAudioCopy v0.99pb5
#
DISCID=920a160b
DTITLE=Joe Baxter - Old Piano
DYEAR=2010
DGENRE=Country
TTITLE0=Old Piano
TTITLE1=She's Gone
TTITLE2=Little Scars
TTITLE3=Love Like A Prayer
TTITLE4=Billy Todd
TTITLE5=Old Friends
TTITLE6=Sad Songs
TTITLE7=Arlene
TTITLE8=For Bob
TTITLE9=Oklahoma Nocturne
TTITLE10=Nursing Home Romeo
EXTD=
EXTT0=
EXTT1=
EXTT2=
EXTT3=
EXTT4=
EXTT5=
EXTT6=
EXTT7=
EXTT8=
EXTT9=
EXTT10=
PLAYORDER=
